<svg id="_60_mind_map_outline" data-name="#60_mind_map_outline" xmlns="http://www.w3.org/2000/svg" viewBox="0 0 400 300" data-imageid="wireframe-f" imageName="Mind Map" class="illustrations_image" style="width: 234px;"><polygon points="266.68 225.65 135.9 225.65 135.9 107.93 164.94 78.9 266.68 78.9 266.68 225.65" fill="#fff"/><path d="M266.67,226.65H135.9a1,1,0,0,1-1-1V107.93a1,1,0,0,1,.3-.71l29-29a1,1,0,0,1,.7-.29H266.67a1,1,0,0,1,1,1V225.65A1,1,0,0,1,266.67,226.65Zm-129.77-2H265.67V79.9H165.36L136.9,108.34Z" fill="#093f68"/><path d="M188.36,203.72c-5.83,0-6-.12-6.21-.38a1,1,0,0,1-.3-.71,1,1,0,0,1,1.24-1c1.22.1,12.15,0,19.35,0h0a1,1,0,0,1,0,2C195.77,203.69,191.33,203.72,188.36,203.72Zm-4.51-1.09h0Z" fill="#093f68"/><path d="M166.24,134.5a1,1,0,0,1-1-1V112.93a1,1,0,0,1,1-1h17.12a1,1,0,0,1,0,2H167.24V133.5A1,1,0,0,1,166.24,134.5Z" fill="#093f68"/><path d="M240.61,154.51a1,1,0,0,1-1-1V113.93H221.53a1,1,0,0,1,0-2h19.08a1,1,0,0,1,1,1v40.58A1,1,0,0,1,240.61,154.51Z" fill="#093f68"/><path d="M221.53,197.66a1,1,0,0,1-1-.78l-16.82-74.5L185,172a1,1,0,0,1-1.87-.7L203,118.55a1,1,0,0,1,1-.64,1,1,0,0,1,.9.77l17.56,77.76a1,1,0,0,1-.75,1.2A.82.82,0,0,1,221.53,197.66Z" fill="#093f68"/><path d="M164.28,179.26H156a1,1,0,0,1-1-1V146.54a1,1,0,0,1,2,0v30.72h7.32a1,1,0,0,1,0,2Z" fill="#093f68"/><path d="M249.55,203.71h-8.94a1,1,0,0,1,0-2h7.94V166.53a1,1,0,0,1,2,0v36.18A1,1,0,0,1,249.55,203.71Z" fill="#093f68"/><rect x="183.36" y="106.97" width="38.17" height="11.94" rx="2.55" fill="#ffbc0e"/><path d="M219,119.9H185.91a3.55,3.55,0,0,1-3.55-3.54v-6.85a3.55,3.55,0,0,1,3.55-3.54H219a3.55,3.55,0,0,1,3.55,3.54v6.85A3.55,3.55,0,0,1,219,119.9ZM185.91,108a1.54,1.54,0,0,0-1.55,1.54v6.85a1.54,1.54,0,0,0,1.55,1.54H219a1.54,1.54,0,0,0,1.55-1.54v-6.85A1.54,1.54,0,0,0,219,108Z" fill="#093f68"/><rect x="147.15" y="134.6" width="38.17" height="11.94" rx="2.55" fill="#f56132"/><path d="M182.78,147.54H149.7a3.56,3.56,0,0,1-3.55-3.54v-6.85a3.56,3.56,0,0,1,3.55-3.55h33.08a3.56,3.56,0,0,1,3.54,3.55V144A3.55,3.55,0,0,1,182.78,147.54ZM149.7,135.6a1.56,1.56,0,0,0-1.55,1.55V144a1.55,1.55,0,0,0,1.55,1.54h33.08a1.54,1.54,0,0,0,1.54-1.54v-6.85a1.55,1.55,0,0,0-1.54-1.55Z" fill="#093f68"/><rect x="219.89" y="153.51" width="38.17" height="11.94" rx="2.55" fill="#ffbc0e"/><path d="M255.51,166.45H222.43a3.56,3.56,0,0,1-3.54-3.55v-6.85a3.55,3.55,0,0,1,3.54-3.54h33.08a3.55,3.55,0,0,1,3.55,3.54v6.85A3.56,3.56,0,0,1,255.51,166.45Zm-33.08-11.94a1.54,1.54,0,0,0-1.54,1.54v6.85a1.55,1.55,0,0,0,1.54,1.55h33.08a1.56,1.56,0,0,0,1.55-1.55v-6.85a1.55,1.55,0,0,0-1.55-1.54Z" fill="#093f68"/><rect x="202.44" y="196.66" width="38.17" height="11.94" rx="2.55" fill="#ffbc0e"/><path d="M238.07,209.6H205a3.56,3.56,0,0,1-3.55-3.55v-6.84a3.56,3.56,0,0,1,3.55-3.55h33.08a3.55,3.55,0,0,1,3.54,3.55v6.84A3.55,3.55,0,0,1,238.07,209.6ZM205,197.66a1.56,1.56,0,0,0-1.55,1.55v6.84A1.55,1.55,0,0,0,205,207.6h33.08a1.54,1.54,0,0,0,1.54-1.55v-6.84a1.55,1.55,0,0,0-1.54-1.55Z" fill="#093f68"/><rect x="151.98" y="198.47" width="30.87" height="9.65" rx="2.06" fill="#68e1fd" class="target-color"/><path d="M180.79,209.13H154a3.06,3.06,0,0,1-3.06-3.06v-5.54a3.06,3.06,0,0,1,3.06-3.06h26.75a3.06,3.06,0,0,1,3.06,3.06v5.54A3.06,3.06,0,0,1,180.79,209.13ZM154,199.47a1.06,1.06,0,0,0-1.06,1.06v5.54a1.06,1.06,0,0,0,1.06,1.06h26.75a1.06,1.06,0,0,0,1.06-1.06v-5.54a1.06,1.06,0,0,0-1.06-1.06Z" fill="#093f68"/><rect x="164.27" y="172.29" width="38.17" height="11.94" rx="2.55" fill="#70cc40"/><path d="M199.9,185.23H166.82a3.56,3.56,0,0,1-3.54-3.55v-6.85a3.55,3.55,0,0,1,3.54-3.54H199.9a3.55,3.55,0,0,1,3.54,3.54v6.85A3.56,3.56,0,0,1,199.9,185.23Zm-33.08-11.94a1.54,1.54,0,0,0-1.54,1.54v6.85a1.55,1.55,0,0,0,1.54,1.55H199.9a1.55,1.55,0,0,0,1.54-1.55v-6.85a1.54,1.54,0,0,0-1.54-1.54Z" fill="#093f68"/><rect x="268.92" y="121.95" width="14.55" height="68.03" transform="translate(68.4 -83.68) rotate(19.62)" fill="#68e1fd" class="target-color"/><path d="M271.62,191.45a1,1,0,0,1-.33-.06l-13.7-4.88A1,1,0,0,1,257,186a1,1,0,0,1,0-.76l22.84-64.08a1,1,0,0,1,1.28-.61l13.7,4.89a1,1,0,0,1,.61,1.28l-22.84,64.07A1,1,0,0,1,271.62,191.45ZM259.2,185,271,189.17,293.19,127l-11.82-4.22Z" fill="#093f68"/><path d="M287.47,117.42H290a6,6,0,0,1,6,6v.71a0,0,0,0,1,0,0H281.47a0,0,0,0,1,0,0v-.71a6,6,0,0,1,6-6Z" transform="translate(57.31 -89.93) rotate(19.62)" fill="#093f68"/><path d="M294.46,127.37a1,1,0,0,1-.33-.06l-13.7-4.88a1,1,0,0,1-.61-1.28l.24-.67a7,7,0,0,1,8.94-4.24l2.4.86h0a7,7,0,0,1,4.25,8.94l-.24.67A1,1,0,0,1,294.46,127.37Zm-12.41-6.49,11.8,4.21a5,5,0,0,0-3.12-6.11l-2.4-.86a5,5,0,0,0-6.28,2.76Z" fill="#093f68"/><polygon points="271.63 190.44 263.7 199.47 258.63 205.24 258.36 197.56 257.93 185.56 271.63 190.44" fill="#fff"/><path d="M258.63,206.24a1,1,0,0,1-.34-.06,1,1,0,0,1-.66-.91l-.7-19.67a1,1,0,0,1,.4-.85,1,1,0,0,1,.93-.13L272,189.5a1,1,0,0,1,.42,1.6l-13,14.8A1,1,0,0,1,258.63,206.24ZM259,187l.56,15.69,10.36-11.8Z" fill="#093f68"/><polygon points="263.7 199.47 258.63 205.24 258.36 197.56 263.7 199.47" fill="#68e1fd" class="target-color"/><path d="M258.63,206.24a1,1,0,0,1-.34-.06,1,1,0,0,1-.66-.91l-.27-7.67a1,1,0,0,1,.41-.84,1,1,0,0,1,.92-.14l5.35,1.91a1,1,0,0,1,.63.69,1,1,0,0,1-.22.91l-5.07,5.77A1,1,0,0,1,258.63,206.24Zm.78-7.24.13,3.69,2.44-2.77Z" fill="#093f68"/><polygon points="135.9 107.93 164.82 107.93 164.82 78.9 135.9 107.93" fill="#68e1fd" class="target-color"/><path d="M164.82,108.93H135.9a1,1,0,0,1-.92-.62,1,1,0,0,1,.22-1.09l28.91-29A1,1,0,0,1,165.2,78a1,1,0,0,1,.62.92v29A1,1,0,0,1,164.82,108.93Zm-26.51-2h25.51V81.32Z" fill="#093f68"/><path d="M256,88H225.21a1,1,0,0,1,0-2H256a1,1,0,0,1,0,2Z" fill="#dfeaef"/><path d="M256,96.08H231.07a1,1,0,0,1,0-2H256a1,1,0,0,1,0,2Z" fill="#dfeaef"/></svg>